<svg xmlns="http://www.w3.org/2000/svg" xmlns:xlink="http://www.w3.org/1999/xlink" width="500" zoomAndPan="magnify" viewBox="0 0 375 374.999991" height="500" preserveAspectRatio="xMidYMid meet" version="1.0"><defs><g/></defs><g fill="#f2f1ee" fill-opacity="1"><g transform="translate(205.728872, 335.313039)"><g><path d="M 123.953125 -132.691406 L 123.953125 -160.734375 C 123.953125 -161.546875 123.140625 -162.5625 121.71875 -162.5625 L 95.304688 -162.5625 C 54.867188 -162.5625 0 -150.777344 0 -81.28125 C 0 -9.144531 55.476562 0 95.304688 0 L 121.71875 0 C 123.140625 0 123.953125 -1.015625 123.953125 -1.828125 L 123.953125 -101.398438 L 61.570312 -101.398438 L 61.570312 -70.308594 L 92.863281 -70.308594 L 92.863281 -29.667969 C 57.507812 -27.839844 31.292969 -42.671875 31.292969 -81.28125 C 31.292969 -131.472656 73.152344 -133.503906 92.863281 -132.691406 Z M 123.953125 -132.691406 "/></g></g></g><g fill="#f2f1ee" fill-opacity="1"><g transform="translate(33.867085, 241.631044)"><g><path d="M 134.523438 -162.5625 L 108.308594 -162.5625 C 106.886719 -162.5625 105.871094 -161.546875 105.871094 -160.734375 L 105.871094 -54.867188 L 30.886719 -161.953125 C 30.683594 -162.359375 29.464844 -162.5625 29.058594 -162.5625 L 2.03125 -162.5625 C 1.015625 -162.5625 0 -161.546875 0 -160.734375 L 0 -39.015625 L 31.089844 -39.015625 L 31.089844 -107.699219 L 105.871094 -0.609375 C 106.074219 -0.203125 107.292969 0 107.699219 0 L 134.523438 0 C 135.945312 0 136.757812 -1.015625 136.757812 -1.828125 L 136.757812 -160.734375 C 136.757812 -161.546875 135.945312 -162.5625 134.523438 -162.5625 Z M 134.523438 -162.5625 "/></g></g></g><g fill="#f2f1ee" fill-opacity="1"><g transform="translate(140.248869, 303.114955)"><g><path d="M 110.949219 -2.640625 C 100.789062 -25.199219 89.816406 -47.550781 79.65625 -70.511719 C 95.914062 -76.40625 109.527344 -89.410156 109.527344 -114.199219 C 109.527344 -162.15625 63.804688 -162.5625 54.660156 -162.5625 L 2.03125 -162.5625 C 1.015625 -162.5625 0 -161.546875 0 -160.734375 L 0 -133.097656 L 54.660156 -133.097656 C 59.539062 -133.097656 78.640625 -132.082031 78.640625 -114.199219 C 78.640625 -96.320312 61.367188 -95.507812 54.660156 -95.507812 L 0 -95.507812 L 0 -1.828125 C 0 -1.015625 1.015625 0 2.03125 0 L 28.652344 0 C 29.871094 0 30.886719 -1.015625 30.886719 -1.828125 L 30.886719 -65.636719 L 48.363281 -65.636719 L 78.03125 -1.21875 C 78.234375 -0.609375 79.453125 0 80.0625 0 L 109.121094 0 C 110.746094 0 111.558594 -1.21875 110.949219 -2.640625 Z M 110.949219 -2.640625 "/></g></g></g></svg>