<svg xmlns="http://www.w3.org/2000/svg" xmlns:xlink="http://www.w3.org/1999/xlink" width="500" zoomAndPan="magnify" viewBox="0 0 375 374.999991" height="500" preserveAspectRatio="xMidYMid meet" version="1.0"><defs><g/></defs><g fill="#f2f1ee" fill-opacity="1"><g transform="translate(94.081208, 216.12446)"><g><path d="M 6.6875 -7.078125 L 2.5 -7.078125 L 2.5 -4.671875 L 6.296875 -4.671875 L 6.296875 -3.421875 L 2.5 -3.421875 L 2.5 0 L 1.09375 0 L 1.09375 -8.34375 L 6.703125 -8.34375 Z M 6.6875 -7.078125 "/></g></g></g><g fill="#f2f1ee" fill-opacity="1"><g transform="translate(103.314682, 216.12446)"><g><path d="M 6.390625 0 L 4.859375 -2.53125 C 4.785156 -2.519531 4.660156 -2.515625 4.484375 -2.515625 L 2.5 -2.515625 L 2.5 0 L 1.09375 0 L 1.09375 -8.34375 L 4.484375 -8.34375 C 5.546875 -8.34375 6.367188 -8.09375 6.953125 -7.59375 C 7.546875 -7.101562 7.84375 -6.40625 7.84375 -5.5 C 7.84375 -4.832031 7.691406 -4.265625 7.390625 -3.796875 C 7.097656 -3.335938 6.671875 -3.003906 6.109375 -2.796875 L 7.984375 0 Z M 2.5 -3.78125 L 4.484375 -3.78125 C 5.835938 -3.78125 6.515625 -4.335938 6.515625 -5.453125 C 6.515625 -6.535156 5.835938 -7.078125 4.484375 -7.078125 L 2.5 -7.078125 Z M 2.5 -3.78125 "/></g></g></g><g fill="#f2f1ee" fill-opacity="1"><g transform="translate(114.311139, 216.12446)"><g><path d="M 1.671875 -7.171875 C 2.523438 -7.972656 3.578125 -8.375 4.828125 -8.375 C 6.078125 -8.375 7.125 -7.972656 7.96875 -7.171875 C 8.820312 -6.367188 9.25 -5.367188 9.25 -4.171875 C 9.25 -2.984375 8.820312 -1.976562 7.96875 -1.15625 C 7.125 -0.34375 6.078125 0.0625 4.828125 0.0625 C 3.578125 0.0625 2.523438 -0.34375 1.671875 -1.15625 C 0.828125 -1.976562 0.40625 -2.984375 0.40625 -4.171875 C 0.40625 -5.367188 0.828125 -6.367188 1.671875 -7.171875 Z M 4.84375 -7.125 C 4.007812 -7.125 3.300781 -6.835938 2.71875 -6.265625 C 2.132812 -5.691406 1.84375 -4.992188 1.84375 -4.171875 C 1.84375 -3.347656 2.132812 -2.644531 2.71875 -2.0625 C 3.3125 -1.488281 4.015625 -1.203125 4.828125 -1.203125 C 5.648438 -1.203125 6.351562 -1.488281 6.9375 -2.0625 C 7.519531 -2.644531 7.8125 -3.347656 7.8125 -4.171875 C 7.8125 -4.992188 7.519531 -5.691406 6.9375 -6.265625 C 6.351562 -6.835938 5.65625 -7.125 4.84375 -7.125 Z M 4.84375 -7.125 "/></g></g></g><g fill="#f2f1ee" fill-opacity="1"><g transform="translate(126.34394, 216.12446)"><g><path d="M 8.328125 0 L 6.953125 0 L 2.5 -5.984375 L 2.5 0 L 1.09375 0 L 1.09375 -8.34375 L 2.484375 -8.34375 L 6.953125 -2.34375 L 6.953125 -8.34375 L 8.328125 -8.34375 Z M 8.328125 0 "/></g></g></g><g fill="#f2f1ee" fill-opacity="1"><g transform="translate(138.162318, 216.12446)"><g><path d="M 6.796875 -7.078125 L 4.15625 -7.078125 L 4.15625 0 L 2.734375 0 L 2.734375 -7.078125 L 0.109375 -7.078125 L 0.109375 -8.34375 L 6.796875 -8.34375 Z M 6.796875 -7.078125 "/></g></g></g><g fill="#f2f1ee" fill-opacity="1"><g transform="translate(147.443454, 216.12446)"><g><path d="M 7.0625 -7.078125 L 2.5 -7.078125 L 2.5 -4.828125 L 6.578125 -4.828125 L 6.578125 -3.5625 L 2.5 -3.5625 L 2.5 -1.265625 L 7.203125 -1.265625 L 7.203125 0 L 1.09375 0 L 1.09375 -8.34375 L 7.0625 -8.34375 Z M 7.0625 -7.078125 "/></g></g></g><g fill="#f2f1ee" fill-opacity="1"><g transform="translate(157.641804, 216.12446)"><g><path d="M 8.328125 0 L 6.953125 0 L 2.5 -5.984375 L 2.5 0 L 1.09375 0 L 1.09375 -8.34375 L 2.484375 -8.34375 L 6.953125 -2.34375 L 6.953125 -8.34375 L 8.328125 -8.34375 Z M 8.328125 0 "/></g></g></g><g fill="#f2f1ee" fill-opacity="1"><g transform="translate(169.460182, 216.12446)"><g><path d="M 1.09375 -8.34375 L 4.515625 -8.34375 C 5.765625 -8.34375 6.796875 -7.945312 7.609375 -7.15625 C 8.421875 -6.375 8.828125 -5.378906 8.828125 -4.171875 C 8.828125 -2.960938 8.414062 -1.960938 7.59375 -1.171875 C 6.78125 -0.390625 5.742188 0 4.484375 0 L 1.09375 0 Z M 2.5 -7.078125 L 2.5 -1.265625 L 4.546875 -1.265625 C 5.367188 -1.265625 6.050781 -1.535156 6.59375 -2.078125 C 7.144531 -2.617188 7.421875 -3.3125 7.421875 -4.15625 C 7.421875 -5 7.140625 -5.695312 6.578125 -6.25 C 6.015625 -6.800781 5.320312 -7.078125 4.5 -7.078125 Z M 2.5 -7.078125 "/></g></g></g><g fill="#f2f1ee" fill-opacity="1"><g transform="translate(181.076067, 216.12446)"><g/></g></g><g fill="#f2f1ee" fill-opacity="1"><g transform="translate(186.533448, 216.12446)"><g><path d="M 1.09375 -8.34375 L 4.515625 -8.34375 C 5.765625 -8.34375 6.796875 -7.945312 7.609375 -7.15625 C 8.421875 -6.375 8.828125 -5.378906 8.828125 -4.171875 C 8.828125 -2.960938 8.414062 -1.960938 7.59375 -1.171875 C 6.78125 -0.390625 5.742188 0 4.484375 0 L 1.09375 0 Z M 2.5 -7.078125 L 2.5 -1.265625 L 4.546875 -1.265625 C 5.367188 -1.265625 6.050781 -1.535156 6.59375 -2.078125 C 7.144531 -2.617188 7.421875 -3.3125 7.421875 -4.15625 C 7.421875 -5 7.140625 -5.695312 6.578125 -6.25 C 6.015625 -6.800781 5.320312 -7.078125 4.5 -7.078125 Z M 2.5 -7.078125 "/></g></g></g><g fill="#f2f1ee" fill-opacity="1"><g transform="translate(198.149326, 216.12446)"><g><path d="M 7.0625 -7.078125 L 2.5 -7.078125 L 2.5 -4.828125 L 6.578125 -4.828125 L 6.578125 -3.5625 L 2.5 -3.5625 L 2.5 -1.265625 L 7.203125 -1.265625 L 7.203125 0 L 1.09375 0 L 1.09375 -8.34375 L 7.0625 -8.34375 Z M 7.0625 -7.078125 "/></g></g></g><g fill="#f2f1ee" fill-opacity="1"><g transform="translate(208.34767, 216.12446)"><g><path d="M 4.8125 0 L 3.359375 0 L 0.03125 -8.34375 L 1.546875 -8.34375 L 4.125 -1.5625 L 6.71875 -8.34375 L 8.1875 -8.34375 Z M 4.8125 0 "/></g></g></g><g fill="#f2f1ee" fill-opacity="1"><g transform="translate(218.951027, 216.12446)"><g><path d="M 7.0625 -7.078125 L 2.5 -7.078125 L 2.5 -4.828125 L 6.578125 -4.828125 L 6.578125 -3.5625 L 2.5 -3.5625 L 2.5 -1.265625 L 7.203125 -1.265625 L 7.203125 0 L 1.09375 0 L 1.09375 -8.34375 L 7.0625 -8.34375 Z M 7.0625 -7.078125 "/></g></g></g><g fill="#f2f1ee" fill-opacity="1"><g transform="translate(229.149371, 216.12446)"><g><path d="M 2.5 -1.28125 L 6.109375 -1.28125 L 6.109375 0 L 1.09375 0 L 1.09375 -8.34375 L 2.5 -8.34375 Z M 2.5 -1.28125 "/></g></g></g><g fill="#f2f1ee" fill-opacity="1"><g transform="translate(237.89445, 216.12446)"><g><path d="M 1.671875 -7.171875 C 2.523438 -7.972656 3.578125 -8.375 4.828125 -8.375 C 6.078125 -8.375 7.125 -7.972656 7.96875 -7.171875 C 8.820312 -6.367188 9.25 -5.367188 9.25 -4.171875 C 9.25 -2.984375 8.820312 -1.976562 7.96875 -1.15625 C 7.125 -0.34375 6.078125 0.0625 4.828125 0.0625 C 3.578125 0.0625 2.523438 -0.34375 1.671875 -1.15625 C 0.828125 -1.976562 0.40625 -2.984375 0.40625 -4.171875 C 0.40625 -5.367188 0.828125 -6.367188 1.671875 -7.171875 Z M 4.84375 -7.125 C 4.007812 -7.125 3.300781 -6.835938 2.71875 -6.265625 C 2.132812 -5.691406 1.84375 -4.992188 1.84375 -4.171875 C 1.84375 -3.347656 2.132812 -2.644531 2.71875 -2.0625 C 3.3125 -1.488281 4.015625 -1.203125 4.828125 -1.203125 C 5.648438 -1.203125 6.351562 -1.488281 6.9375 -2.0625 C 7.519531 -2.644531 7.8125 -3.347656 7.8125 -4.171875 C 7.8125 -4.992188 7.519531 -5.691406 6.9375 -6.265625 C 6.351562 -6.835938 5.65625 -7.125 4.84375 -7.125 Z M 4.84375 -7.125 "/></g></g></g><g fill="#f2f1ee" fill-opacity="1"><g transform="translate(249.927248, 216.12446)"><g><path d="M 1.09375 -8.34375 L 4.421875 -8.34375 C 5.472656 -8.34375 6.285156 -8.09375 6.859375 -7.59375 C 7.429688 -7.101562 7.71875 -6.40625 7.71875 -5.5 C 7.71875 -4.550781 7.429688 -3.816406 6.859375 -3.296875 C 6.285156 -2.773438 5.472656 -2.515625 4.421875 -2.515625 L 2.5 -2.515625 L 2.5 0 L 1.09375 0 Z M 2.5 -7.078125 L 2.5 -3.78125 L 4.359375 -3.78125 C 5.703125 -3.78125 6.375 -4.335938 6.375 -5.453125 C 6.375 -6.535156 5.703125 -7.078125 4.359375 -7.078125 Z M 2.5 -7.078125 "/></g></g></g><g fill="#f2f1ee" fill-opacity="1"><g transform="translate(260.328098, 216.12446)"><g><path d="M 7.0625 -7.078125 L 2.5 -7.078125 L 2.5 -4.828125 L 6.578125 -4.828125 L 6.578125 -3.5625 L 2.5 -3.5625 L 2.5 -1.265625 L 7.203125 -1.265625 L 7.203125 0 L 1.09375 0 L 1.09375 -8.34375 L 7.0625 -8.34375 Z M 7.0625 -7.078125 "/></g></g></g><g fill="#f2f1ee" fill-opacity="1"><g transform="translate(270.526442, 216.12446)"><g><path d="M 6.390625 0 L 4.859375 -2.53125 C 4.785156 -2.519531 4.660156 -2.515625 4.484375 -2.515625 L 2.5 -2.515625 L 2.5 0 L 1.09375 0 L 1.09375 -8.34375 L 4.484375 -8.34375 C 5.546875 -8.34375 6.367188 -8.09375 6.953125 -7.59375 C 7.546875 -7.101562 7.84375 -6.40625 7.84375 -5.5 C 7.84375 -4.832031 7.691406 -4.265625 7.390625 -3.796875 C 7.097656 -3.335938 6.671875 -3.003906 6.109375 -2.796875 L 7.984375 0 Z M 2.5 -3.78125 L 4.484375 -3.78125 C 5.835938 -3.78125 6.515625 -4.335938 6.515625 -5.453125 C 6.515625 -6.535156 5.835938 -7.078125 4.484375 -7.078125 L 2.5 -7.078125 Z M 2.5 -3.78125 "/></g></g></g><g fill="#f2f1ee" fill-opacity="1"><g transform="translate(281.535573, 216.12446)"><g/></g></g><g fill="#f2f1ee" fill-opacity="1"><g transform="translate(13.985222, 184.752577)"><g><path d="M 20.609375 0 L 17.1875 0 L 6.1875 -14.796875 L 6.1875 0 L 2.71875 0 L 2.71875 -20.640625 L 6.125 -20.640625 L 17.1875 -5.8125 L 17.1875 -20.640625 L 20.609375 -20.640625 Z M 20.609375 0 "/></g></g></g><g fill="#f2f1ee" fill-opacity="1"><g transform="translate(38.420493, 184.752577)"><g><path d="M 17.453125 -17.515625 L 6.1875 -17.515625 L 6.1875 -11.9375 L 16.28125 -11.9375 L 16.28125 -8.8125 L 6.1875 -8.8125 L 6.1875 -3.125 L 17.8125 -3.125 L 17.8125 0 L 2.71875 0 L 2.71875 -20.640625 L 17.453125 -20.640625 Z M 17.453125 -17.515625 "/></g></g></g><g fill="#f2f1ee" fill-opacity="1"><g transform="translate(58.84715, 184.752577)"><g><path d="M 9.5 -20.78125 C 12.164062 -20.78125 14.570312 -20.070312 16.71875 -18.65625 L 15.265625 -15.59375 C 13.171875 -16.875 11.160156 -17.515625 9.234375 -17.515625 C 8.191406 -17.515625 7.367188 -17.328125 6.765625 -16.953125 C 6.171875 -16.578125 5.875 -16.046875 5.875 -15.359375 C 5.875 -14.671875 6.144531 -14.085938 6.6875 -13.609375 C 7.238281 -13.128906 7.925781 -12.773438 8.75 -12.546875 C 9.582031 -12.316406 10.476562 -12.03125 11.4375 -11.6875 C 12.40625 -11.34375 13.300781 -10.976562 14.125 -10.59375 C 14.945312 -10.21875 15.628906 -9.617188 16.171875 -8.796875 C 16.710938 -7.984375 16.984375 -7 16.984375 -5.84375 C 16.984375 -4.03125 16.257812 -2.582031 14.8125 -1.5 C 13.375 -0.414062 11.503906 0.125 9.203125 0.125 C 7.628906 0.125 6.101562 -0.171875 4.625 -0.765625 C 3.15625 -1.359375 1.867188 -2.15625 0.765625 -3.15625 L 2.265625 -6.15625 C 3.304688 -5.195312 4.453125 -4.457031 5.703125 -3.9375 C 6.953125 -3.414062 8.140625 -3.15625 9.265625 -3.15625 C 10.484375 -3.15625 11.429688 -3.375 12.109375 -3.8125 C 12.785156 -4.257812 13.125 -4.875 13.125 -5.65625 C 13.125 -6.363281 12.847656 -6.957031 12.296875 -7.4375 C 11.742188 -7.925781 11.054688 -8.28125 10.234375 -8.5 C 9.410156 -8.726562 8.515625 -9.003906 7.546875 -9.328125 C 6.585938 -9.648438 5.691406 -9.992188 4.859375 -10.359375 C 4.035156 -10.722656 3.347656 -11.304688 2.796875 -12.109375 C 2.242188 -12.921875 1.96875 -13.894531 1.96875 -15.03125 C 1.96875 -16.78125 2.65625 -18.175781 4.03125 -19.21875 C 5.414062 -20.257812 7.238281 -20.78125 9.5 -20.78125 Z M 9.5 -20.78125 "/></g></g></g><g fill="#f2f1ee" fill-opacity="1"><g transform="translate(78.271655, 184.752577)"><g><path d="M 16.8125 -17.515625 L 10.265625 -17.515625 L 10.265625 0 L 6.78125 0 L 6.78125 -17.515625 L 0.265625 -17.515625 L 0.265625 -20.640625 L 16.8125 -20.640625 Z M 16.8125 -17.515625 "/></g></g></g><g fill="#f2f1ee" fill-opacity="1"><g transform="translate(96.428733, 184.752577)"><g><path d="M 4.15625 -17.734375 C 6.257812 -19.734375 8.851562 -20.734375 11.9375 -20.734375 C 15.019531 -20.734375 17.613281 -19.734375 19.71875 -17.734375 C 21.820312 -15.734375 22.875 -13.257812 22.875 -10.3125 C 22.875 -7.363281 21.820312 -4.882812 19.71875 -2.875 C 17.613281 -0.863281 15.019531 0.140625 11.9375 0.140625 C 8.851562 0.140625 6.257812 -0.863281 4.15625 -2.875 C 2.050781 -4.882812 1 -7.363281 1 -10.3125 C 1 -13.257812 2.050781 -15.734375 4.15625 -17.734375 Z M 11.96875 -17.609375 C 9.925781 -17.609375 8.175781 -16.90625 6.71875 -15.5 C 5.269531 -14.09375 4.546875 -12.363281 4.546875 -10.3125 C 4.546875 -8.269531 5.273438 -6.535156 6.734375 -5.109375 C 8.203125 -3.691406 9.945312 -2.984375 11.96875 -2.984375 C 13.988281 -2.984375 15.71875 -3.691406 17.15625 -5.109375 C 18.59375 -6.535156 19.3125 -8.269531 19.3125 -10.3125 C 19.3125 -12.363281 18.59375 -14.09375 17.15625 -15.5 C 15.71875 -16.90625 13.988281 -17.609375 11.96875 -17.609375 Z M 11.96875 -17.609375 "/></g></g></g><g fill="#f2f1ee" fill-opacity="1"><g transform="translate(121.394558, 184.752577)"><g><path d="M 15.796875 0 L 12.03125 -6.25 C 11.832031 -6.226562 11.519531 -6.21875 11.09375 -6.21875 L 6.1875 -6.21875 L 6.1875 0 L 2.71875 0 L 2.71875 -20.640625 L 11.09375 -20.640625 C 13.71875 -20.640625 15.757812 -20.023438 17.21875 -18.796875 C 18.675781 -17.566406 19.40625 -15.832031 19.40625 -13.59375 C 19.40625 -11.9375 19.035156 -10.539062 18.296875 -9.40625 C 17.554688 -8.269531 16.5 -7.4375 15.125 -6.90625 L 19.75 0 Z M 6.1875 -9.34375 L 11.09375 -9.34375 C 14.425781 -9.34375 16.09375 -10.726562 16.09375 -13.5 C 16.09375 -16.175781 14.425781 -17.515625 11.09375 -17.515625 L 6.1875 -17.515625 Z M 6.1875 -9.34375 "/></g></g></g><g fill="#f2f1ee" fill-opacity="1"><g transform="translate(143.796048, 184.752577)"><g/></g></g><g fill="#f2f1ee" fill-opacity="1"><g transform="translate(152.491633, 184.752577)"><g><path d="M 15.796875 0 L 12.03125 -6.25 C 11.832031 -6.226562 11.519531 -6.21875 11.09375 -6.21875 L 6.1875 -6.21875 L 6.1875 0 L 2.71875 0 L 2.71875 -20.640625 L 11.09375 -20.640625 C 13.71875 -20.640625 15.757812 -20.023438 17.21875 -18.796875 C 18.675781 -17.566406 19.40625 -15.832031 19.40625 -13.59375 C 19.40625 -11.9375 19.035156 -10.539062 18.296875 -9.40625 C 17.554688 -8.269531 16.5 -7.4375 15.125 -6.90625 L 19.75 0 Z M 6.1875 -9.34375 L 11.09375 -9.34375 C 14.425781 -9.34375 16.09375 -10.726562 16.09375 -13.5 C 16.09375 -16.175781 14.425781 -17.515625 11.09375 -17.515625 L 6.1875 -17.515625 Z M 6.1875 -9.34375 "/></g></g></g><g fill="#f2f1ee" fill-opacity="1"><g transform="translate(174.893122, 184.752577)"><g><path d="M 6.1875 0 L 2.71875 0 L 2.71875 -20.640625 L 6.1875 -20.640625 Z M 6.1875 0 "/></g></g></g><g fill="#f2f1ee" fill-opacity="1"><g transform="translate(184.885611, 184.752577)"><g><path d="M 4.15625 -17.734375 C 6.257812 -19.734375 8.851562 -20.734375 11.9375 -20.734375 C 15.019531 -20.734375 17.613281 -19.734375 19.71875 -17.734375 C 21.820312 -15.734375 22.875 -13.257812 22.875 -10.3125 C 22.875 -7.363281 21.820312 -4.882812 19.71875 -2.875 C 17.613281 -0.863281 15.019531 0.140625 11.9375 0.140625 C 8.851562 0.140625 6.257812 -0.863281 4.15625 -2.875 C 2.050781 -4.882812 1 -7.363281 1 -10.3125 C 1 -13.257812 2.050781 -15.734375 4.15625 -17.734375 Z M 11.96875 -17.609375 C 9.925781 -17.609375 8.175781 -16.90625 6.71875 -15.5 C 5.269531 -14.09375 4.546875 -12.363281 4.546875 -10.3125 C 4.546875 -8.269531 5.273438 -6.535156 6.734375 -5.109375 C 8.203125 -3.691406 9.945312 -2.984375 11.96875 -2.984375 C 13.988281 -2.984375 15.71875 -3.691406 17.15625 -5.109375 C 18.59375 -6.535156 19.3125 -8.269531 19.3125 -10.3125 C 19.3125 -12.363281 18.59375 -14.09375 17.15625 -15.5 C 15.71875 -16.90625 13.988281 -17.609375 11.96875 -17.609375 Z M 11.96875 -17.609375 "/></g></g></g><g fill="#f2f1ee" fill-opacity="1"><g transform="translate(209.851441, 184.752577)"><g><path d="M 9.5 -20.78125 C 12.164062 -20.78125 14.570312 -20.070312 16.71875 -18.65625 L 15.265625 -15.59375 C 13.171875 -16.875 11.160156 -17.515625 9.234375 -17.515625 C 8.191406 -17.515625 7.367188 -17.328125 6.765625 -16.953125 C 6.171875 -16.578125 5.875 -16.046875 5.875 -15.359375 C 5.875 -14.671875 6.144531 -14.085938 6.6875 -13.609375 C 7.238281 -13.128906 7.925781 -12.773438 8.75 -12.546875 C 9.582031 -12.316406 10.476562 -12.03125 11.4375 -11.6875 C 12.40625 -11.34375 13.300781 -10.976562 14.125 -10.59375 C 14.945312 -10.21875 15.628906 -9.617188 16.171875 -8.796875 C 16.710938 -7.984375 16.984375 -7 16.984375 -5.84375 C 16.984375 -4.03125 16.257812 -2.582031 14.8125 -1.5 C 13.375 -0.414062 11.503906 0.125 9.203125 0.125 C 7.628906 0.125 6.101562 -0.171875 4.625 -0.765625 C 3.15625 -1.359375 1.867188 -2.15625 0.765625 -3.15625 L 2.265625 -6.15625 C 3.304688 -5.195312 4.453125 -4.457031 5.703125 -3.9375 C 6.953125 -3.414062 8.140625 -3.15625 9.265625 -3.15625 C 10.484375 -3.15625 11.429688 -3.375 12.109375 -3.8125 C 12.785156 -4.257812 13.125 -4.875 13.125 -5.65625 C 13.125 -6.363281 12.847656 -6.957031 12.296875 -7.4375 C 11.742188 -7.925781 11.054688 -8.28125 10.234375 -8.5 C 9.410156 -8.726562 8.515625 -9.003906 7.546875 -9.328125 C 6.585938 -9.648438 5.691406 -9.992188 4.859375 -10.359375 C 4.035156 -10.722656 3.347656 -11.304688 2.796875 -12.109375 C 2.242188 -12.921875 1.96875 -13.894531 1.96875 -15.03125 C 1.96875 -16.78125 2.65625 -18.175781 4.03125 -19.21875 C 5.414062 -20.257812 7.238281 -20.78125 9.5 -20.78125 Z M 9.5 -20.78125 "/></g></g></g><g fill="#f2f1ee" fill-opacity="1"><g transform="translate(229.27595, 184.752577)"><g/></g></g><g fill="#f2f1ee" fill-opacity="1"><g transform="translate(237.971523, 184.752577)"><g><path d="M 16.828125 -10.140625 L 19.875 -10.140625 L 19.875 -2.53125 C 18.8125 -1.726562 17.554688 -1.082031 16.109375 -0.59375 C 14.671875 -0.101562 13.253906 0.140625 11.859375 0.140625 C 8.804688 0.140625 6.234375 -0.863281 4.140625 -2.875 C 2.046875 -4.882812 1 -7.363281 1 -10.3125 C 1 -13.257812 2.0625 -15.734375 4.1875 -17.734375 C 6.3125 -19.734375 8.9375 -20.734375 12.0625 -20.734375 C 13.507812 -20.734375 14.9375 -20.472656 16.34375 -19.953125 C 17.75 -19.429688 18.960938 -18.726562 19.984375 -17.84375 L 18.015625 -15.265625 C 16.328125 -16.835938 14.34375 -17.625 12.0625 -17.625 C 9.957031 -17.625 8.175781 -16.914062 6.71875 -15.5 C 5.269531 -14.09375 4.546875 -12.363281 4.546875 -10.3125 C 4.546875 -8.25 5.273438 -6.507812 6.734375 -5.09375 C 8.203125 -3.6875 9.988281 -2.984375 12.09375 -2.984375 C 13.6875 -2.984375 15.265625 -3.453125 16.828125 -4.390625 Z M 16.828125 -10.140625 "/></g></g></g><g fill="#f2f1ee" fill-opacity="1"><g transform="translate(261.139361, 184.752577)"><g><path d="M 16.046875 -4.65625 L 5.625 -4.65625 L 3.65625 0 L 0.03125 0 L 9.140625 -20.640625 L 12.703125 -20.640625 L 21.734375 0 L 18.015625 0 Z M 14.71875 -7.75 L 10.828125 -16.921875 L 6.921875 -7.75 Z M 14.71875 -7.75 "/></g></g></g><g fill="#f2f1ee" fill-opacity="1"><g transform="translate(283.98297, 184.752577)"><g><path d="M 15.796875 0 L 12.03125 -6.25 C 11.832031 -6.226562 11.519531 -6.21875 11.09375 -6.21875 L 6.1875 -6.21875 L 6.1875 0 L 2.71875 0 L 2.71875 -20.640625 L 11.09375 -20.640625 C 13.71875 -20.640625 15.757812 -20.023438 17.21875 -18.796875 C 18.675781 -17.566406 19.40625 -15.832031 19.40625 -13.59375 C 19.40625 -11.9375 19.035156 -10.539062 18.296875 -9.40625 C 17.554688 -8.269531 16.5 -7.4375 15.125 -6.90625 L 19.75 0 Z M 6.1875 -9.34375 L 11.09375 -9.34375 C 14.425781 -9.34375 16.09375 -10.726562 16.09375 -13.5 C 16.09375 -16.175781 14.425781 -17.515625 11.09375 -17.515625 L 6.1875 -17.515625 Z M 6.1875 -9.34375 "/></g></g></g><g fill="#f2f1ee" fill-opacity="1"><g transform="translate(306.384459, 184.752577)"><g><path d="M 11.859375 -20.734375 C 13.304688 -20.734375 14.722656 -20.453125 16.109375 -19.890625 C 17.492188 -19.328125 18.691406 -18.546875 19.703125 -17.546875 L 17.65625 -15 C 16.914062 -15.8125 16.03125 -16.453125 15 -16.921875 C 13.976562 -17.390625 12.945312 -17.625 11.90625 -17.625 C 9.84375 -17.625 8.097656 -16.921875 6.671875 -15.515625 C 5.253906 -14.117188 4.546875 -12.40625 4.546875 -10.375 C 4.546875 -8.332031 5.253906 -6.609375 6.671875 -5.203125 C 8.097656 -3.796875 9.84375 -3.09375 11.90625 -3.09375 C 14.050781 -3.09375 15.96875 -3.910156 17.65625 -5.546875 L 19.71875 -3.25 C 18.664062 -2.207031 17.429688 -1.378906 16.015625 -0.765625 C 14.597656 -0.160156 13.171875 0.140625 11.734375 0.140625 C 8.703125 0.140625 6.15625 -0.863281 4.09375 -2.875 C 2.03125 -4.882812 1 -7.375 1 -10.34375 C 1 -13.269531 2.046875 -15.734375 4.140625 -17.734375 C 6.234375 -19.734375 8.804688 -20.734375 11.859375 -20.734375 Z M 11.859375 -20.734375 "/></g></g></g><g fill="#f2f1ee" fill-opacity="1"><g transform="translate(328.019601, 184.752577)"><g><path d="M 6.1875 0 L 2.71875 0 L 2.71875 -20.640625 L 6.1875 -20.640625 Z M 6.1875 0 "/></g></g></g><g fill="#f2f1ee" fill-opacity="1"><g transform="translate(338.01209, 184.752577)"><g><path d="M 16.046875 -4.65625 L 5.625 -4.65625 L 3.65625 0 L 0.03125 0 L 9.140625 -20.640625 L 12.703125 -20.640625 L 21.734375 0 L 18.015625 0 Z M 14.71875 -7.75 L 10.828125 -16.921875 L 6.921875 -7.75 Z M 14.71875 -7.75 "/></g></g></g><g fill="#f2f1ee" fill-opacity="1"><g transform="translate(360.866593, 184.752577)"><g/></g></g></svg>