<svg xmlns="http://www.w3.org/2000/svg" xmlns:xlink="http://www.w3.org/1999/xlink" width="500" zoomAndPan="magnify" viewBox="0 0 375 374.999991" height="500" preserveAspectRatio="xMidYMid meet" version="1.0"><defs><g/></defs><g fill="#f2f1ee" fill-opacity="1"><g transform="translate(199.314983, 242.67924)"><g><path d="M 80.339844 -86.003906 L 80.339844 -104.179688 C 80.339844 -104.707031 79.8125 -105.363281 78.890625 -105.363281 L 61.769531 -105.363281 C 35.5625 -105.363281 0 -97.726562 0 -52.683594 C 0 -5.925781 35.957031 0 61.769531 0 L 78.890625 0 C 79.8125 0 80.339844 -0.660156 80.339844 -1.183594 L 80.339844 -65.722656 L 39.90625 -65.722656 L 39.90625 -45.570312 L 60.191406 -45.570312 L 60.191406 -19.230469 C 37.273438 -18.042969 20.28125 -27.660156 20.28125 -52.683594 C 20.28125 -85.214844 47.414062 -86.53125 60.191406 -86.003906 Z M 80.339844 -86.003906 "/></g></g></g><g fill="#f2f1ee" fill-opacity="1"><g transform="translate(87.923357, 181.959604)"><g><path d="M 87.191406 -105.363281 L 70.199219 -105.363281 C 69.277344 -105.363281 68.617188 -104.707031 68.617188 -104.179688 L 68.617188 -35.5625 L 20.019531 -104.96875 C 19.886719 -105.234375 19.097656 -105.363281 18.835938 -105.363281 L 1.316406 -105.363281 C 0.660156 -105.363281 0 -104.707031 0 -104.179688 L 0 -25.289062 L 20.152344 -25.289062 L 20.152344 -69.804688 L 68.617188 -0.394531 C 68.75 -0.132812 69.539062 0 69.804688 0 L 87.191406 0 C 88.113281 0 88.636719 -0.660156 88.636719 -1.183594 L 88.636719 -104.179688 C 88.636719 -104.707031 88.113281 -105.363281 87.191406 -105.363281 Z M 87.191406 -105.363281 "/></g></g></g><g fill="#f2f1ee" fill-opacity="1"><g transform="translate(156.874347, 221.810163)"><g><path d="M 71.910156 -1.710938 C 65.328125 -16.332031 58.214844 -30.820312 51.628906 -45.703125 C 62.164062 -49.523438 70.988281 -57.949219 70.988281 -74.019531 C 70.988281 -105.101562 41.355469 -105.363281 35.429688 -105.363281 L 1.316406 -105.363281 C 0.660156 -105.363281 0 -104.707031 0 -104.179688 L 0 -86.269531 L 35.429688 -86.269531 C 38.589844 -86.269531 50.96875 -85.609375 50.96875 -74.019531 C 50.96875 -62.429688 39.773438 -61.902344 35.429688 -61.902344 L 0 -61.902344 L 0 -1.183594 C 0 -0.660156 0.660156 0 1.316406 0 L 18.570312 0 C 19.359375 0 20.019531 -0.660156 20.019531 -1.183594 L 20.019531 -42.542969 L 31.347656 -42.542969 L 50.574219 -0.789062 C 50.707031 -0.394531 51.496094 0 51.890625 0 L 70.726562 0 C 71.78125 0 72.308594 -0.789062 71.910156 -1.710938 Z M 71.910156 -1.710938 "/></g></g></g><g fill="#f2f1ee" fill-opacity="1"><g transform="translate(101.294345, 310.97787)"><g><path d="M 6.171875 -6.53125 L 2.3125 -6.53125 L 2.3125 -4.3125 L 5.8125 -4.3125 L 5.8125 -3.15625 L 2.3125 -3.15625 L 2.3125 0 L 1.015625 0 L 1.015625 -7.703125 L 6.1875 -7.703125 Z M 6.171875 -6.53125 "/></g></g></g><g fill="#f2f1ee" fill-opacity="1"><g transform="translate(109.814876, 310.97787)"><g><path d="M 5.890625 0 L 4.484375 -2.328125 C 4.410156 -2.328125 4.296875 -2.328125 4.140625 -2.328125 L 2.3125 -2.328125 L 2.3125 0 L 1.015625 0 L 1.015625 -7.703125 L 4.140625 -7.703125 C 5.117188 -7.703125 5.878906 -7.472656 6.421875 -7.015625 C 6.960938 -6.554688 7.234375 -5.910156 7.234375 -5.078125 C 7.234375 -4.453125 7.09375 -3.925781 6.8125 -3.5 C 6.539062 -3.082031 6.148438 -2.773438 5.640625 -2.578125 L 7.375 0 Z M 2.3125 -3.484375 L 4.140625 -3.484375 C 5.378906 -3.484375 6 -4 6 -5.03125 C 6 -6.03125 5.378906 -6.53125 4.140625 -6.53125 L 2.3125 -6.53125 Z M 2.3125 -3.484375 "/></g></g></g><g fill="#f2f1ee" fill-opacity="1"><g transform="translate(119.962264, 310.97787)"><g><path d="M 1.546875 -6.609375 C 2.335938 -7.359375 3.304688 -7.734375 4.453125 -7.734375 C 5.609375 -7.734375 6.578125 -7.359375 7.359375 -6.609375 C 8.140625 -5.867188 8.53125 -4.945312 8.53125 -3.84375 C 8.53125 -2.75 8.140625 -1.820312 7.359375 -1.0625 C 6.578125 -0.3125 5.609375 0.0625 4.453125 0.0625 C 3.304688 0.0625 2.335938 -0.3125 1.546875 -1.0625 C 0.765625 -1.820312 0.375 -2.75 0.375 -3.84375 C 0.375 -4.945312 0.765625 -5.867188 1.546875 -6.609375 Z M 4.46875 -6.5625 C 3.707031 -6.5625 3.050781 -6.300781 2.5 -5.78125 C 1.957031 -5.257812 1.6875 -4.613281 1.6875 -3.84375 C 1.6875 -3.082031 1.957031 -2.4375 2.5 -1.90625 C 3.050781 -1.375 3.703125 -1.109375 4.453125 -1.109375 C 5.210938 -1.109375 5.859375 -1.375 6.390625 -1.90625 C 6.929688 -2.4375 7.203125 -3.082031 7.203125 -3.84375 C 7.203125 -4.613281 6.929688 -5.257812 6.390625 -5.78125 C 5.859375 -6.300781 5.21875 -6.5625 4.46875 -6.5625 Z M 4.46875 -6.5625 "/></g></g></g><g fill="#f2f1ee" fill-opacity="1"><g transform="translate(131.065976, 310.97787)"><g><path d="M 7.6875 0 L 6.40625 0 L 2.3125 -5.515625 L 2.3125 0 L 1.015625 0 L 1.015625 -7.703125 L 2.28125 -7.703125 L 6.40625 -2.171875 L 6.40625 -7.703125 L 7.6875 -7.703125 Z M 7.6875 0 "/></g></g></g><g fill="#f2f1ee" fill-opacity="1"><g transform="translate(141.971823, 310.97787)"><g><path d="M 6.265625 -6.53125 L 3.828125 -6.53125 L 3.828125 0 L 2.53125 0 L 2.53125 -6.53125 L 0.09375 -6.53125 L 0.09375 -7.703125 L 6.265625 -7.703125 Z M 6.265625 -6.53125 "/></g></g></g><g fill="#f2f1ee" fill-opacity="1"><g transform="translate(150.536335, 310.97787)"><g><path d="M 6.515625 -6.53125 L 2.3125 -6.53125 L 2.3125 -4.453125 L 6.078125 -4.453125 L 6.078125 -3.28125 L 2.3125 -3.28125 L 2.3125 -1.171875 L 6.640625 -1.171875 L 6.640625 0 L 1.015625 0 L 1.015625 -7.703125 L 6.515625 -7.703125 Z M 6.515625 -6.53125 "/></g></g></g><g fill="#f2f1ee" fill-opacity="1"><g transform="translate(159.94724, 310.97787)"><g><path d="M 7.6875 0 L 6.40625 0 L 2.3125 -5.515625 L 2.3125 0 L 1.015625 0 L 1.015625 -7.703125 L 2.28125 -7.703125 L 6.40625 -2.171875 L 6.40625 -7.703125 L 7.6875 -7.703125 Z M 7.6875 0 "/></g></g></g><g fill="#f2f1ee" fill-opacity="1"><g transform="translate(170.853087, 310.97787)"><g><path d="M 1.015625 -7.703125 L 4.171875 -7.703125 C 5.316406 -7.703125 6.265625 -7.335938 7.015625 -6.609375 C 7.773438 -5.878906 8.15625 -4.957031 8.15625 -3.84375 C 8.15625 -2.726562 7.773438 -1.804688 7.015625 -1.078125 C 6.265625 -0.359375 5.304688 0 4.140625 0 L 1.015625 0 Z M 2.3125 -6.53125 L 2.3125 -1.171875 L 4.203125 -1.171875 C 4.953125 -1.171875 5.578125 -1.421875 6.078125 -1.921875 C 6.585938 -2.421875 6.84375 -3.054688 6.84375 -3.828125 C 6.84375 -4.609375 6.582031 -5.253906 6.0625 -5.765625 C 5.550781 -6.273438 4.910156 -6.53125 4.140625 -6.53125 Z M 2.3125 -6.53125 "/></g></g></g><g fill="#f2f1ee" fill-opacity="1"><g transform="translate(181.572075, 310.97787)"><g/></g></g><g fill="#f2f1ee" fill-opacity="1"><g transform="translate(186.608076, 310.97787)"><g><path d="M 1.015625 -7.703125 L 4.171875 -7.703125 C 5.316406 -7.703125 6.265625 -7.335938 7.015625 -6.609375 C 7.773438 -5.878906 8.15625 -4.957031 8.15625 -3.84375 C 8.15625 -2.726562 7.773438 -1.804688 7.015625 -1.078125 C 6.265625 -0.359375 5.304688 0 4.140625 0 L 1.015625 0 Z M 2.3125 -6.53125 L 2.3125 -1.171875 L 4.203125 -1.171875 C 4.953125 -1.171875 5.578125 -1.421875 6.078125 -1.921875 C 6.585938 -2.421875 6.84375 -3.054688 6.84375 -3.828125 C 6.84375 -4.609375 6.582031 -5.253906 6.0625 -5.765625 C 5.550781 -6.273438 4.910156 -6.53125 4.140625 -6.53125 Z M 2.3125 -6.53125 "/></g></g></g><g fill="#f2f1ee" fill-opacity="1"><g transform="translate(197.327057, 310.97787)"><g><path d="M 6.515625 -6.53125 L 2.3125 -6.53125 L 2.3125 -4.453125 L 6.078125 -4.453125 L 6.078125 -3.28125 L 2.3125 -3.28125 L 2.3125 -1.171875 L 6.640625 -1.171875 L 6.640625 0 L 1.015625 0 L 1.015625 -7.703125 L 6.515625 -7.703125 Z M 6.515625 -6.53125 "/></g></g></g><g fill="#f2f1ee" fill-opacity="1"><g transform="translate(206.737957, 310.97787)"><g><path d="M 4.4375 0 L 3.109375 0 L 0.03125 -7.703125 L 1.4375 -7.703125 L 3.8125 -1.4375 L 6.203125 -7.703125 L 7.5625 -7.703125 Z M 4.4375 0 "/></g></g></g><g fill="#f2f1ee" fill-opacity="1"><g transform="translate(216.522598, 310.97787)"><g><path d="M 6.515625 -6.53125 L 2.3125 -6.53125 L 2.3125 -4.453125 L 6.078125 -4.453125 L 6.078125 -3.28125 L 2.3125 -3.28125 L 2.3125 -1.171875 L 6.640625 -1.171875 L 6.640625 0 L 1.015625 0 L 1.015625 -7.703125 L 6.515625 -7.703125 Z M 6.515625 -6.53125 "/></g></g></g><g fill="#f2f1ee" fill-opacity="1"><g transform="translate(225.933497, 310.97787)"><g><path d="M 2.3125 -1.171875 L 5.640625 -1.171875 L 5.640625 0 L 1.015625 0 L 1.015625 -7.703125 L 2.3125 -7.703125 Z M 2.3125 -1.171875 "/></g></g></g><g fill="#f2f1ee" fill-opacity="1"><g transform="translate(234.003344, 310.97787)"><g><path d="M 1.546875 -6.609375 C 2.335938 -7.359375 3.304688 -7.734375 4.453125 -7.734375 C 5.609375 -7.734375 6.578125 -7.359375 7.359375 -6.609375 C 8.140625 -5.867188 8.53125 -4.945312 8.53125 -3.84375 C 8.53125 -2.75 8.140625 -1.820312 7.359375 -1.0625 C 6.578125 -0.3125 5.609375 0.0625 4.453125 0.0625 C 3.304688 0.0625 2.335938 -0.3125 1.546875 -1.0625 C 0.765625 -1.820312 0.375 -2.75 0.375 -3.84375 C 0.375 -4.945312 0.765625 -5.867188 1.546875 -6.609375 Z M 4.46875 -6.5625 C 3.707031 -6.5625 3.050781 -6.300781 2.5 -5.78125 C 1.957031 -5.257812 1.6875 -4.613281 1.6875 -3.84375 C 1.6875 -3.082031 1.957031 -2.4375 2.5 -1.90625 C 3.050781 -1.375 3.703125 -1.109375 4.453125 -1.109375 C 5.210938 -1.109375 5.859375 -1.375 6.390625 -1.90625 C 6.929688 -2.4375 7.203125 -3.082031 7.203125 -3.84375 C 7.203125 -4.613281 6.929688 -5.257812 6.390625 -5.78125 C 5.859375 -6.300781 5.21875 -6.5625 4.46875 -6.5625 Z M 4.46875 -6.5625 "/></g></g></g><g fill="#f2f1ee" fill-opacity="1"><g transform="translate(245.107053, 310.97787)"><g><path d="M 1.015625 -7.703125 L 4.078125 -7.703125 C 5.046875 -7.703125 5.796875 -7.472656 6.328125 -7.015625 C 6.859375 -6.554688 7.125 -5.910156 7.125 -5.078125 C 7.125 -4.203125 6.859375 -3.523438 6.328125 -3.046875 C 5.796875 -2.566406 5.046875 -2.328125 4.078125 -2.328125 L 2.3125 -2.328125 L 2.3125 0 L 1.015625 0 Z M 2.3125 -6.53125 L 2.3125 -3.484375 L 4.03125 -3.484375 C 5.269531 -3.484375 5.890625 -4 5.890625 -5.03125 C 5.890625 -6.03125 5.269531 -6.53125 4.03125 -6.53125 Z M 2.3125 -6.53125 "/></g></g></g><g fill="#f2f1ee" fill-opacity="1"><g transform="translate(254.704823, 310.97787)"><g><path d="M 6.515625 -6.53125 L 2.3125 -6.53125 L 2.3125 -4.453125 L 6.078125 -4.453125 L 6.078125 -3.28125 L 2.3125 -3.28125 L 2.3125 -1.171875 L 6.640625 -1.171875 L 6.640625 0 L 1.015625 0 L 1.015625 -7.703125 L 6.515625 -7.703125 Z M 6.515625 -6.53125 "/></g></g></g><g fill="#f2f1ee" fill-opacity="1"><g transform="translate(264.115723, 310.97787)"><g><path d="M 5.890625 0 L 4.484375 -2.328125 C 4.410156 -2.328125 4.296875 -2.328125 4.140625 -2.328125 L 2.3125 -2.328125 L 2.3125 0 L 1.015625 0 L 1.015625 -7.703125 L 4.140625 -7.703125 C 5.117188 -7.703125 5.878906 -7.472656 6.421875 -7.015625 C 6.960938 -6.554688 7.234375 -5.910156 7.234375 -5.078125 C 7.234375 -4.453125 7.09375 -3.925781 6.8125 -3.5 C 6.539062 -3.082031 6.148438 -2.773438 5.640625 -2.578125 L 7.375 0 Z M 2.3125 -3.484375 L 4.140625 -3.484375 C 5.378906 -3.484375 6 -4 6 -5.03125 C 6 -6.03125 5.378906 -6.53125 4.140625 -6.53125 L 2.3125 -6.53125 Z M 2.3125 -3.484375 "/></g></g></g><g fill="#f2f1ee" fill-opacity="1"><g transform="translate(274.274806, 310.97787)"><g/></g></g><g fill="#f2f1ee" fill-opacity="1"><g transform="translate(27.382807, 282.028429)"><g><path d="M 19.015625 0 L 15.859375 0 L 5.71875 -13.65625 L 5.71875 0 L 2.5 0 L 2.5 -19.046875 L 5.65625 -19.046875 L 15.859375 -5.359375 L 15.859375 -19.046875 L 19.015625 -19.046875 Z M 19.015625 0 "/></g></g></g><g fill="#f2f1ee" fill-opacity="1"><g transform="translate(49.931358, 282.028429)"><g><path d="M 16.109375 -16.15625 L 5.71875 -16.15625 L 5.71875 -11.015625 L 15.015625 -11.015625 L 15.015625 -8.140625 L 5.71875 -8.140625 L 5.71875 -2.890625 L 16.4375 -2.890625 L 16.4375 0 L 2.5 0 L 2.5 -19.046875 L 16.109375 -19.046875 Z M 16.109375 -16.15625 "/></g></g></g><g fill="#f2f1ee" fill-opacity="1"><g transform="translate(68.780813, 282.028429)"><g><path d="M 8.765625 -19.171875 C 11.222656 -19.171875 13.441406 -18.519531 15.421875 -17.21875 L 14.09375 -14.390625 C 12.15625 -15.566406 10.296875 -16.15625 8.515625 -16.15625 C 7.554688 -16.15625 6.796875 -15.984375 6.234375 -15.640625 C 5.679688 -15.296875 5.40625 -14.804688 5.40625 -14.171875 C 5.40625 -13.535156 5.660156 -12.992188 6.171875 -12.546875 C 6.679688 -12.109375 7.316406 -11.785156 8.078125 -11.578125 C 8.835938 -11.367188 9.660156 -11.101562 10.546875 -10.78125 C 11.441406 -10.46875 12.269531 -10.132812 13.03125 -9.78125 C 13.789062 -9.425781 14.421875 -8.867188 14.921875 -8.109375 C 15.421875 -7.359375 15.671875 -6.453125 15.671875 -5.390625 C 15.671875 -3.722656 15.003906 -2.390625 13.671875 -1.390625 C 12.335938 -0.390625 10.609375 0.109375 8.484375 0.109375 C 7.035156 0.109375 5.628906 -0.160156 4.265625 -0.703125 C 2.910156 -1.242188 1.722656 -1.976562 0.703125 -2.90625 L 2.09375 -5.6875 C 3.050781 -4.800781 4.101562 -4.113281 5.25 -3.625 C 6.40625 -3.144531 7.503906 -2.90625 8.546875 -2.90625 C 9.671875 -2.90625 10.546875 -3.109375 11.171875 -3.515625 C 11.796875 -3.929688 12.109375 -4.5 12.109375 -5.21875 C 12.109375 -5.875 11.851562 -6.421875 11.34375 -6.859375 C 10.832031 -7.304688 10.195312 -7.632812 9.4375 -7.84375 C 8.675781 -8.050781 7.847656 -8.304688 6.953125 -8.609375 C 6.066406 -8.910156 5.242188 -9.226562 4.484375 -9.5625 C 3.722656 -9.894531 3.085938 -10.429688 2.578125 -11.171875 C 2.078125 -11.921875 1.828125 -12.820312 1.828125 -13.875 C 1.828125 -15.488281 2.457031 -16.773438 3.71875 -17.734375 C 4.988281 -18.691406 6.671875 -19.171875 8.765625 -19.171875 Z M 8.765625 -19.171875 "/></g></g></g><g fill="#f2f1ee" fill-opacity="1"><g transform="translate(86.705495, 282.028429)"><g><path d="M 15.5 -16.15625 L 9.46875 -16.15625 L 9.46875 0 L 6.25 0 L 6.25 -16.15625 L 0.25 -16.15625 L 0.25 -19.046875 L 15.5 -19.046875 Z M 15.5 -16.15625 "/></g></g></g><g fill="#f2f1ee" fill-opacity="1"><g transform="translate(103.460612, 282.028429)"><g><path d="M 3.828125 -16.359375 C 5.773438 -18.203125 8.171875 -19.125 11.015625 -19.125 C 13.859375 -19.125 16.25 -18.203125 18.1875 -16.359375 C 20.132812 -14.515625 21.109375 -12.234375 21.109375 -9.515625 C 21.109375 -6.796875 20.132812 -4.503906 18.1875 -2.640625 C 16.25 -0.785156 13.859375 0.140625 11.015625 0.140625 C 8.171875 0.140625 5.773438 -0.785156 3.828125 -2.640625 C 1.890625 -4.503906 0.921875 -6.796875 0.921875 -9.515625 C 0.921875 -12.234375 1.890625 -14.515625 3.828125 -16.359375 Z M 11.046875 -16.234375 C 9.160156 -16.234375 7.546875 -15.582031 6.203125 -14.28125 C 4.859375 -12.988281 4.1875 -11.398438 4.1875 -9.515625 C 4.1875 -7.628906 4.863281 -6.03125 6.21875 -4.71875 C 7.570312 -3.40625 9.179688 -2.75 11.046875 -2.75 C 12.910156 -2.75 14.503906 -3.40625 15.828125 -4.71875 C 17.148438 -6.03125 17.8125 -7.628906 17.8125 -9.515625 C 17.8125 -11.398438 17.148438 -12.988281 15.828125 -14.28125 C 14.503906 -15.582031 12.910156 -16.234375 11.046875 -16.234375 Z M 11.046875 -16.234375 "/></g></g></g><g fill="#f2f1ee" fill-opacity="1"><g transform="translate(126.498752, 282.028429)"><g><path d="M 14.578125 0 L 11.09375 -5.765625 C 10.914062 -5.742188 10.628906 -5.734375 10.234375 -5.734375 L 5.71875 -5.734375 L 5.71875 0 L 2.5 0 L 2.5 -19.046875 L 10.234375 -19.046875 C 12.660156 -19.046875 14.546875 -18.476562 15.890625 -17.34375 C 17.234375 -16.207031 17.90625 -14.609375 17.90625 -12.546875 C 17.90625 -11.015625 17.5625 -9.722656 16.875 -8.671875 C 16.195312 -7.617188 15.222656 -6.847656 13.953125 -6.359375 L 18.21875 0 Z M 5.71875 -8.625 L 10.234375 -8.625 C 13.316406 -8.625 14.859375 -9.898438 14.859375 -12.453125 C 14.859375 -14.921875 13.316406 -16.15625 10.234375 -16.15625 L 5.71875 -16.15625 Z M 5.71875 -8.625 "/></g></g></g><g fill="#f2f1ee" fill-opacity="1"><g transform="translate(147.170556, 282.028429)"><g/></g></g><g fill="#f2f1ee" fill-opacity="1"><g transform="translate(155.194729, 282.028429)"><g><path d="M 14.578125 0 L 11.09375 -5.765625 C 10.914062 -5.742188 10.628906 -5.734375 10.234375 -5.734375 L 5.71875 -5.734375 L 5.71875 0 L 2.5 0 L 2.5 -19.046875 L 10.234375 -19.046875 C 12.660156 -19.046875 14.546875 -18.476562 15.890625 -17.34375 C 17.234375 -16.207031 17.90625 -14.609375 17.90625 -12.546875 C 17.90625 -11.015625 17.5625 -9.722656 16.875 -8.671875 C 16.195312 -7.617188 15.222656 -6.847656 13.953125 -6.359375 L 18.21875 0 Z M 5.71875 -8.625 L 10.234375 -8.625 C 13.316406 -8.625 14.859375 -9.898438 14.859375 -12.453125 C 14.859375 -14.921875 13.316406 -16.15625 10.234375 -16.15625 L 5.71875 -16.15625 Z M 5.71875 -8.625 "/></g></g></g><g fill="#f2f1ee" fill-opacity="1"><g transform="translate(175.866534, 282.028429)"><g><path d="M 5.71875 0 L 2.5 0 L 2.5 -19.046875 L 5.71875 -19.046875 Z M 5.71875 0 "/></g></g></g><g fill="#f2f1ee" fill-opacity="1"><g transform="translate(185.087473, 282.028429)"><g><path d="M 3.828125 -16.359375 C 5.773438 -18.203125 8.171875 -19.125 11.015625 -19.125 C 13.859375 -19.125 16.25 -18.203125 18.1875 -16.359375 C 20.132812 -14.515625 21.109375 -12.234375 21.109375 -9.515625 C 21.109375 -6.796875 20.132812 -4.503906 18.1875 -2.640625 C 16.25 -0.785156 13.859375 0.140625 11.015625 0.140625 C 8.171875 0.140625 5.773438 -0.785156 3.828125 -2.640625 C 1.890625 -4.503906 0.921875 -6.796875 0.921875 -9.515625 C 0.921875 -12.234375 1.890625 -14.515625 3.828125 -16.359375 Z M 11.046875 -16.234375 C 9.160156 -16.234375 7.546875 -15.582031 6.203125 -14.28125 C 4.859375 -12.988281 4.1875 -11.398438 4.1875 -9.515625 C 4.1875 -7.628906 4.863281 -6.03125 6.21875 -4.71875 C 7.570312 -3.40625 9.179688 -2.75 11.046875 -2.75 C 12.910156 -2.75 14.503906 -3.40625 15.828125 -4.71875 C 17.148438 -6.03125 17.8125 -7.628906 17.8125 -9.515625 C 17.8125 -11.398438 17.148438 -12.988281 15.828125 -14.28125 C 14.503906 -15.582031 12.910156 -16.234375 11.046875 -16.234375 Z M 11.046875 -16.234375 "/></g></g></g><g fill="#f2f1ee" fill-opacity="1"><g transform="translate(208.125618, 282.028429)"><g><path d="M 8.765625 -19.171875 C 11.222656 -19.171875 13.441406 -18.519531 15.421875 -17.21875 L 14.09375 -14.390625 C 12.15625 -15.566406 10.296875 -16.15625 8.515625 -16.15625 C 7.554688 -16.15625 6.796875 -15.984375 6.234375 -15.640625 C 5.679688 -15.296875 5.40625 -14.804688 5.40625 -14.171875 C 5.40625 -13.535156 5.660156 -12.992188 6.171875 -12.546875 C 6.679688 -12.109375 7.316406 -11.785156 8.078125 -11.578125 C 8.835938 -11.367188 9.660156 -11.101562 10.546875 -10.78125 C 11.441406 -10.46875 12.269531 -10.132812 13.03125 -9.78125 C 13.789062 -9.425781 14.421875 -8.867188 14.921875 -8.109375 C 15.421875 -7.359375 15.671875 -6.453125 15.671875 -5.390625 C 15.671875 -3.722656 15.003906 -2.390625 13.671875 -1.390625 C 12.335938 -0.390625 10.609375 0.109375 8.484375 0.109375 C 7.035156 0.109375 5.628906 -0.160156 4.265625 -0.703125 C 2.910156 -1.242188 1.722656 -1.976562 0.703125 -2.90625 L 2.09375 -5.6875 C 3.050781 -4.800781 4.101562 -4.113281 5.25 -3.625 C 6.40625 -3.144531 7.503906 -2.90625 8.546875 -2.90625 C 9.671875 -2.90625 10.546875 -3.109375 11.171875 -3.515625 C 11.796875 -3.929688 12.109375 -4.5 12.109375 -5.21875 C 12.109375 -5.875 11.851562 -6.421875 11.34375 -6.859375 C 10.832031 -7.304688 10.195312 -7.632812 9.4375 -7.84375 C 8.675781 -8.050781 7.847656 -8.304688 6.953125 -8.609375 C 6.066406 -8.910156 5.242188 -9.226562 4.484375 -9.5625 C 3.722656 -9.894531 3.085938 -10.429688 2.578125 -11.171875 C 2.078125 -11.921875 1.828125 -12.820312 1.828125 -13.875 C 1.828125 -15.488281 2.457031 -16.773438 3.71875 -17.734375 C 4.988281 -18.691406 6.671875 -19.171875 8.765625 -19.171875 Z M 8.765625 -19.171875 "/></g></g></g><g fill="#f2f1ee" fill-opacity="1"><g transform="translate(226.050304, 282.028429)"><g/></g></g><g fill="#f2f1ee" fill-opacity="1"><g transform="translate(234.074465, 282.028429)"><g><path d="M 15.53125 -9.359375 L 18.328125 -9.359375 L 18.328125 -2.34375 C 17.347656 -1.59375 16.191406 -0.988281 14.859375 -0.53125 C 13.523438 -0.0820312 12.21875 0.140625 10.9375 0.140625 C 8.125 0.140625 5.75 -0.785156 3.8125 -2.640625 C 1.882812 -4.503906 0.921875 -6.796875 0.921875 -9.515625 C 0.921875 -12.234375 1.898438 -14.515625 3.859375 -16.359375 C 5.816406 -18.203125 8.238281 -19.125 11.125 -19.125 C 12.46875 -19.125 13.785156 -18.882812 15.078125 -18.40625 C 16.378906 -17.925781 17.5 -17.273438 18.4375 -16.453125 L 16.625 -14.09375 C 15.0625 -15.539062 13.226562 -16.265625 11.125 -16.265625 C 9.1875 -16.265625 7.546875 -15.609375 6.203125 -14.296875 C 4.859375 -12.992188 4.1875 -11.398438 4.1875 -9.515625 C 4.1875 -7.617188 4.863281 -6.015625 6.21875 -4.703125 C 7.570312 -3.398438 9.21875 -2.75 11.15625 -2.75 C 12.625 -2.75 14.082031 -3.179688 15.53125 -4.046875 Z M 15.53125 -9.359375 "/></g></g></g><g fill="#f2f1ee" fill-opacity="1"><g transform="translate(255.453447, 282.028429)"><g><path d="M 14.796875 -4.296875 L 5.203125 -4.296875 L 3.375 0 L 0.03125 0 L 8.4375 -19.046875 L 11.71875 -19.046875 L 20.046875 0 L 16.625 0 Z M 13.578125 -7.15625 L 9.984375 -15.609375 L 6.390625 -7.15625 Z M 13.578125 -7.15625 "/></g></g></g><g fill="#f2f1ee" fill-opacity="1"><g transform="translate(276.533233, 282.028429)"><g><path d="M 14.578125 0 L 11.09375 -5.765625 C 10.914062 -5.742188 10.628906 -5.734375 10.234375 -5.734375 L 5.71875 -5.734375 L 5.71875 0 L 2.5 0 L 2.5 -19.046875 L 10.234375 -19.046875 C 12.660156 -19.046875 14.546875 -18.476562 15.890625 -17.34375 C 17.234375 -16.207031 17.90625 -14.609375 17.90625 -12.546875 C 17.90625 -11.015625 17.5625 -9.722656 16.875 -8.671875 C 16.195312 -7.617188 15.222656 -6.847656 13.953125 -6.359375 L 18.21875 0 Z M 5.71875 -8.625 L 10.234375 -8.625 C 13.316406 -8.625 14.859375 -9.898438 14.859375 -12.453125 C 14.859375 -14.921875 13.316406 -16.15625 10.234375 -16.15625 L 5.71875 -16.15625 Z M 5.71875 -8.625 "/></g></g></g><g fill="#f2f1ee" fill-opacity="1"><g transform="translate(297.205038, 282.028429)"><g><path d="M 10.9375 -19.125 C 12.28125 -19.125 13.585938 -18.863281 14.859375 -18.34375 C 16.140625 -17.832031 17.242188 -17.113281 18.171875 -16.1875 L 16.296875 -13.84375 C 15.609375 -14.59375 14.789062 -15.179688 13.84375 -15.609375 C 12.90625 -16.046875 11.953125 -16.265625 10.984375 -16.265625 C 9.085938 -16.265625 7.476562 -15.613281 6.15625 -14.3125 C 4.84375 -13.019531 4.1875 -11.441406 4.1875 -9.578125 C 4.1875 -7.691406 4.84375 -6.097656 6.15625 -4.796875 C 7.476562 -3.503906 9.085938 -2.859375 10.984375 -2.859375 C 12.960938 -2.859375 14.734375 -3.609375 16.296875 -5.109375 L 18.203125 -3 C 17.222656 -2.03125 16.078125 -1.265625 14.765625 -0.703125 C 13.460938 -0.140625 12.148438 0.140625 10.828125 0.140625 C 8.035156 0.140625 5.6875 -0.785156 3.78125 -2.640625 C 1.875 -4.503906 0.921875 -6.804688 0.921875 -9.546875 C 0.921875 -12.242188 1.882812 -14.515625 3.8125 -16.359375 C 5.75 -18.203125 8.125 -19.125 10.9375 -19.125 Z M 10.9375 -19.125 "/></g></g></g><g fill="#f2f1ee" fill-opacity="1"><g transform="translate(317.169667, 282.028429)"><g><path d="M 5.71875 0 L 2.5 0 L 2.5 -19.046875 L 5.71875 -19.046875 Z M 5.71875 0 "/></g></g></g><g fill="#f2f1ee" fill-opacity="1"><g transform="translate(326.390606, 282.028429)"><g><path d="M 14.796875 -4.296875 L 5.203125 -4.296875 L 3.375 0 L 0.03125 0 L 8.4375 -19.046875 L 11.71875 -19.046875 L 20.046875 0 L 16.625 0 Z M 13.578125 -7.15625 L 9.984375 -15.609375 L 6.390625 -7.15625 Z M 13.578125 -7.15625 "/></g></g></g><g fill="#f2f1ee" fill-opacity="1"><g transform="translate(347.480446, 282.028429)"><g/></g></g></svg>